<?xml version="1.0" encoding="utf-8"?>
<!-- Generator: Adobe Illustrator 22.1.0, SVG Export Plug-In . SVG Version: 6.00 Build 0)  -->
<svg version="1.1" id="Isolation_Mode" xmlns="http://www.w3.org/2000/svg" xmlns:xlink="http://www.w3.org/1999/xlink" x="0px"
	 y="0px" viewBox="0 0 1423.4 324.5" style="enable-background:new 0 0 1423.4 324.5;" xml:space="preserve">
<style type="text/css">
	.st0{fill:#FFFFFF;}
	.st1{enable-background:new    ;}
</style>
<g>
	<path class="st0" d="M102.5,313.3c-0.3-0.1-0.6-0.3-1-0.4C101.9,313.1,102.2,313.2,102.5,313.3z"/>
	<path class="st0" d="M197.1,272.2L183.9,232l-8.5-26.2l-9.8-29.8l-2.8-7.9l-1.3-4l-0.6-1.2l-0.3-0.2h-0.4c-0.2,0-0.3,0.1-0.4,0.2
		l-0.2,0.2l-0.4,0.4c-0.1,0.2-0.4,0.6-0.4,0.7l-0.7,1.5l-4.8,13.6L139,220.7l-13.8,37.5l-20.7,55.9c17.4,6.6,36.2,10.2,55.9,10.4
		c18.2,0.1,35.8-2.8,52.2-8.3l-5.3-15.5L197.1,272.2z"/>
	<path class="st0" d="M104.3,314c-0.5-0.2-0.9-0.4-1.4-0.5C103.3,313.6,103.8,313.8,104.3,314z"/>
	<path class="st0" d="M323,163.2C323.6,73.6,251.7,0.6,162.5,0S0.6,71.6,0,161.2c-0.3,45.3,18,86.5,47.7,116.1
		c0.3,0.3,0.6,0.5,0.8,0.8l35.9-60.8l11.9-23.7l10.3-22.3l9.6-23.3l8.4-24.3L134.7,94l8.6-26.6l10.6-35l7.8-25.1l3.9,13.2l7.1,26.3
		l6.4,23.7l7.1,24l7.3,22.7l6.7,20.1l7.3,20.5l8.7,20.8l10.9,22.7l13.2,25.9l13.1,22.3l20,30l0,0C303.6,250.2,322.7,209,323,163.2z"
		/>
	<path d="M104.6,314.1L104.6,314.1c-0.1,0-0.2-0.1-0.3-0.1C104.4,314,104.5,314.1,104.6,314.1z"/>
	<path d="M102.9,313.4c-0.1,0-0.2-0.1-0.4-0.1C102.6,313.4,102.8,313.4,102.9,313.4z"/>
</g>
<g>
	<g>
		<g>
			<g>
				<path class="st0" d="M397.4,150.2c-0.8-0.7-1.2-1.6-1.2-2.7V132c0-1.2,0.4-2.1,1.2-2.9c0.8-0.7,1.7-1.1,2.8-1.1h14.5
					c7.1,0,13.7-1.8,19.7-5.3s10.7-8.2,14.2-14.2s5.3-12.5,5.3-19.7c0-7.1-1.8-13.7-5.3-19.7s-8.2-10.7-14.2-14.2
					s-12.5-5.3-19.7-5.3h-14.5c-0.6,0-1.1,0.2-1.5,0.6c-0.4,0.4-0.6,0.9-0.6,1.5v10.9c0,1.1-0.4,2-1.2,2.7c-0.8,0.7-1.7,1.1-2.8,1.1
					h-15.5c-1,0-1.8-0.4-2.6-1.2c-0.8-0.8-1.2-1.6-1.2-2.6V30.5c0-1.1,0.4-2,1.2-2.8c0.8-0.8,1.6-1.2,2.6-1.2h36.1
					c11.3,0,21.7,2.8,31.3,8.4c9.5,5.6,17.1,13.2,22.7,22.7s8.4,20,8.4,31.3s-2.8,21.7-8.4,31.3c-5.6,9.5-13.2,17.1-22.7,22.7
					c-9.5,5.6-20,8.4-31.3,8.4h-14.5C399.1,151.3,398.1,150.9,397.4,150.2z"/>
				<path class="st0" d="M503.1,150.1c-0.7-0.7-1-1.4-1-2.2V30.1c0-1,0.3-1.7,1-2.3c0.7-0.6,1.4-0.9,2.2-0.9h80c1,0,1.7,0.3,2.3,0.9
					s0.9,1.4,0.9,2.3v15c0,0.8-0.3,1.6-0.9,2.2c-0.6,0.7-1.4,1-2.3,1h-57.7c-0.8,0-1.6,0.3-2.2,0.9c-0.7,0.6-1,1.4-1,2.3v26.3v0.5
					c0,1.1,0.2,1.8,0.7,2.2c0.5,0.4,1.6,0.6,3.4,0.6h44.7c0.8,0,1.5,0.3,2.1,0.8s0.9,1.2,0.9,2.1v15.2c0,0.8-0.3,1.5-0.9,2.1
					c-0.6,0.5-1.3,0.8-2.1,0.8h-44.8c-1.5,0-2.6,0.4-3.1,1.3s-0.8,1.8-0.8,2.8v18.9c0,1.2,0.3,2.2,1,3s2,1.3,4,1.3h57.2
					c0.8,0,1.6,0.3,2.2,1c0.7,0.7,1,1.5,1,2.4v15c0,0.8-0.3,1.6-0.9,2.2c-0.6,0.7-1.4,1-2.3,1h-81.3
					C504.5,151.1,503.8,150.7,503.1,150.1z"/>
				<path class="st0" d="M617.8,150.5c-0.5-0.5-0.8-1.1-0.8-1.8V29.2c0-0.7,0.3-1.3,0.8-1.8s1.2-0.7,1.9-0.7h18.2
					c0.8,0,1.5,0.4,2,1.3l42.3,71.6c1.3,2.4,2.4,3.6,3.2,3.6c1,0,1.4-1.3,1.4-3.9l-0.4-70c0-0.7,0.3-1.3,0.8-1.8s1.2-0.7,1.9-0.7
					H708c0.7,0,1.3,0.2,1.9,0.7c0.5,0.5,0.8,1.1,0.8,1.8v119.5c0,0.7-0.3,1.3-0.8,1.8s-1.2,0.7-1.9,0.7h-12.7
					c-2.1,0-3.6-0.2-4.5-0.5c-0.8-0.4-1.7-1.3-2.7-2.9l-45-71.6c-0.7-1.1-1.4-1.6-2-1.6c-1,0-1.4,0.8-1.4,2.5l0.4,71.6
					c0,0.7-0.3,1.3-0.8,1.8s-1.1,0.7-1.7,0.7h-17.9C619,151.3,618.4,151,617.8,150.5z"/>
				<path class="st0" d="M775.1,150.9c-0.4-0.5-0.6-1-0.6-1.6V52.4c0-1.1-0.4-2.1-1.3-2.9c-0.9-0.9-1.9-1.3-3.1-1.3h-30
					c-0.5,0-1-0.2-1.4-0.7c-0.5-0.5-0.7-1-0.7-1.4V28.7c0-0.6,0.2-1.1,0.6-1.4c0.4-0.4,0.9-0.5,1.5-0.5h94.3c0.7,0,1.3,0.2,1.8,0.7
					s0.7,1,0.7,1.6v16.8c0,0.6-0.2,1.1-0.7,1.6s-1.1,0.7-1.8,0.7h-29.7c-1.2,0-2.2,0.4-3,1.3c-0.8,0.8-1.3,1.8-1.3,3v96.8
					c0,0.6-0.2,1.1-0.6,1.6c-0.4,0.5-1,0.7-1.7,0.7h-21.3C776.1,151.6,775.5,151.4,775.1,150.9z"/>
				<path class="st0" d="M1014.1,144c-9.7-5.7-17.4-13.5-23-23.3c-5.7-9.8-8.5-20.6-8.5-32.3c0-11.6,2.8-22.2,8.5-32.1
					c5.7-9.8,13.3-17.6,23-23.4s20.3-8.7,31.7-8.7c8.9,0,17.4,1.8,25.6,5.4c8.1,3.6,15.1,8.7,21.1,15.4c0.7,0.7,1.1,1.5,1.1,2.3
					c0,0.7-0.4,1.5-1.3,2.3c-2.5,2-5,4.1-7.5,6.3s-4.2,3.7-5.2,4.6c-0.7,0.7-1.5,1.1-2.5,1.1c-0.8,0-1.6-0.4-2.3-1.1
					c-3.8-4.2-8.2-7.4-13.2-9.6s-10.2-3.3-15.7-3.3c-7.1,0-13.8,1.8-19.9,5.5s-11,8.6-14.6,14.8s-5.4,13-5.4,20.4s1.8,14.2,5.4,20.4
					c3.6,6.2,8.4,11.1,14.6,14.8c6.1,3.7,12.8,5.5,19.9,5.5c5.1,0,10.1-1,14.8-3c4.8-2,9.1-4.9,12.9-8.8c1.2-1,2.5-1.4,3.9-1.4
					c1.2,0,2.1,0.4,2.9,1.1c1.2,1,2.9,2.4,5,4.2c2.1,1.8,4,3.5,5.5,4.9c1.3,1.1,2,2.4,2,3.9c0,1-0.4,1.8-1.1,2.5
					c-6,6.4-12.9,11.4-20.8,14.8c-7.9,3.5-16.3,5.2-25.1,5.2C1034.4,152.6,1023.8,149.7,1014.1,144z"/>
				<path class="st0" d="M1127.6,131.4c-5.9-6.6-10.2-14-13-22.1l-0.4-0.9c-2.1-6.4-3.2-13.1-3.2-20c0-7.4,1.3-14.7,3.8-21.8
					c2.5-7.1,6.3-13.6,11.3-19.5c6.5-7,13.2-12.4,19.9-16.2c6.7-3.8,15.2-5.9,25.5-6.5h0.5c10-0.6,19.8,1.2,29.3,5.4
					c6,2.6,11.7,6.5,17.2,11.5c5.5,5.1,9.6,10.1,12.1,15.1c5.6,9.8,8.4,20.4,8.4,31.8c0,6.7-1,13.2-3,19.6s-5,12.3-8.9,17.8
					c-3,4.2-6.2,7.8-9.7,11s-7.8,6.1-13,8.8c-9.2,4.6-19.1,7-29.7,7c-9.1,0-17.7-1.8-25.9-5.4C1140.5,143.2,1133.5,138,1127.6,131.4
					z M1205.4,115.6c3.2-3.7,5.5-7.2,7-10.5c2.4-5.5,3.6-11.1,3.6-16.8c0-7.9-2.1-15.2-6.4-22.1c-4.3-6.8-10.2-11.9-17.7-15.3
					c-5.5-2.4-11.1-3.6-17-3.6c-5.2,0-10.3,1-15.1,2.9c-4.8,1.9-9.1,4.7-13,8.4l-3,3.2c-3.2,3.9-5.6,8.2-7.2,12.7s-2.4,9.2-2.4,13.9
					c0,6,1.3,11.7,3.8,17.2s6.1,10.2,10.9,14c7.7,6.4,16.6,9.6,26.4,9.6c6.5,0,12.7-1.4,18.4-4.3
					C1198.2,122.4,1202.2,119.3,1205.4,115.6z"/>
				<path class="st0" d="M1269.4,150c-0.7-0.7-1-1.4-1-2.2V29.1c0-1,0.4-1.8,1.1-2.4c0.7-0.7,1.5-1,2.3-1h18.6c0.8,0,1.6,0.3,2.2,1
					c0.7,0.7,1,1.5,1,2.4v118.6c0,0.8-0.3,1.6-0.9,2.2c-0.6,0.7-1.4,1-2.3,1h-18.6C1270.9,150.9,1270.1,150.6,1269.4,150z"/>
				<path class="st0" d="M1330.5,149.9c-0.5-0.5-0.8-1.1-0.8-1.8V28.6c0-0.7,0.3-1.3,0.8-1.8s1.2-0.7,1.9-0.7h18.2
					c0.8,0,1.5,0.4,2,1.3L1395,99c1.3,2.4,2.4,3.6,3.2,3.6c1,0,1.4-1.3,1.4-3.9l-0.4-70c0-0.7,0.3-1.3,0.8-1.8s1.2-0.7,1.9-0.7h18.8
					c0.7,0,1.3,0.2,1.9,0.7c0.5,0.5,0.8,1.1,0.8,1.8v119.5c0,0.7-0.3,1.3-0.8,1.8s-1.2,0.7-1.9,0.7H1408c-2.1,0-3.6-0.2-4.5-0.5
					c-0.8-0.4-1.7-1.3-2.7-2.9l-45-71.6c-0.7-1.1-1.4-1.6-2-1.6c-1,0-1.4,0.8-1.4,2.5l0.4,71.6c0,0.7-0.3,1.3-0.8,1.8
					s-1.1,0.7-1.7,0.7h-17.9C1331.7,150.6,1331.1,150.4,1330.5,149.9z"/>
			</g>
			<g>
				<path class="st0" d="M854.4,151.1c-0.4-0.5-0.5-1-0.4-1.6l31.6-120.2c0.2-0.7,0.7-1.3,1.3-1.9c0.7-0.5,1.4-0.8,2.2-0.8h37.2
					c0.7,0,1.4,0.2,2.1,0.7c0.7,0.5,1.2,1.1,1.4,1.8l31.6,120.2v0.5c0,1.3-0.6,2-1.8,2h-17.5c-0.7,0-1.5-0.3-2.2-0.8
					c-0.8-0.5-1.2-1.2-1.3-1.9l-8.8-33.2c-0.2-1.1-0.8-2-1.8-2.7s-2-1.1-3-1.1h-34.7c-1.1,0-2.1,0.4-3,1.1c-1,0.7-1.5,1.6-1.8,2.7
					l-8.8,33.1c-0.1,0.8-0.6,1.5-1.3,2.1c-0.8,0.5-1.5,0.8-2.2,0.8h-17.5C855.2,151.8,854.8,151.5,854.4,151.1z M919.6,93
					c1.2,0,2.1-0.4,2.8-1.3c0.7-0.8,0.9-1.8,0.6-2.9L913,52c-0.1-1-0.7-1.8-1.6-2.5c-1-0.7-2-1.1-3-1.1h-1.1c-1.1,0-2.1,0.4-3,1.1
					c-1,0.7-1.5,1.5-1.6,2.5l-9.8,36.8l-0.2,0.9c0,1,0.3,1.7,0.9,2.3c0.6,0.6,1.4,0.9,2.5,0.9L919.6,93L919.6,93z"/>
			</g>
		</g>
		<g class="st1">
			<path class="st0" d="M402.4,279.6c-1.2,0-2.6-0.1-4.3-0.2c-1.6-0.1-3.3-0.3-5-0.4c-1.7-0.2-3.3-0.4-4.8-0.6
				c-1.5-0.3-2.8-0.5-3.9-0.8v-72.1c1.3-0.4,2.7-0.7,4.3-0.9c1.6-0.3,3.2-0.5,4.9-0.6c1.7-0.2,3.4-0.3,5-0.4
				c1.6-0.1,3.1-0.1,4.5-0.1c4,0,7.9,0.3,11.5,1c3.6,0.6,6.8,1.7,9.6,3.2c2.7,1.5,4.9,3.5,6.5,6c1.6,2.5,2.4,5.6,2.4,9.2
				c0,4-1,7.5-3.1,10.3c-2.1,2.8-4.8,4.8-8.3,5.9c2.2,0.5,4.1,1.2,5.9,2.2c1.8,0.9,3.4,2.1,4.8,3.6c1.4,1.5,2.4,3.3,3.2,5.4
				c0.8,2.1,1.1,4.7,1.1,7.6c0,7.1-2.8,12.5-8.4,16.2S414.2,279.6,402.4,279.6z M391.9,236.7h14.3c2.7,0,5.2-0.2,7.6-0.6
				s4.5-1.1,6.2-2.2c1.8-1,3.2-2.4,4.2-4.2c1-1.8,1.5-4,1.5-6.7c0-2.4-0.5-4.5-1.6-6.2c-1.1-1.7-2.6-3.1-4.6-4.1
				c-2-1.1-4.3-1.8-7.1-2.3c-2.7-0.5-5.8-0.7-9.1-0.7c-2.7,0-4.9,0.1-6.8,0.2c-1.8,0.1-3.4,0.3-4.6,0.5V236.7z M391.9,243v29.6
				c1.1,0.1,2.7,0.3,4.9,0.5c2.2,0.2,4.4,0.3,6.6,0.3c3.3,0,6.5-0.2,9.7-0.7c3.1-0.4,5.9-1.2,8.3-2.4c2.4-1.2,4.3-2.7,5.7-4.8
				c1.4-2,2.2-4.6,2.2-7.8c0-2.9-0.5-5.3-1.5-7.2c-1-1.9-2.5-3.4-4.3-4.6c-1.9-1.1-4.2-1.9-6.9-2.3c-2.7-0.4-5.7-0.7-9-0.7H391.9z"
				/>
			<path class="st0" d="M466.3,280c-2.4-0.1-4.5-0.4-6.2-0.9c-1.8-0.5-3.2-1.4-4.4-2.5c-1.2-1.1-2.1-2.6-2.7-4.3
				c-0.6-1.8-0.9-4-0.9-6.6v-69.2l7-1.3v70.3c0,1.7,0.2,3.1,0.5,4.2c0.3,1,0.8,1.9,1.5,2.5c0.6,0.6,1.5,1.1,2.5,1.4
				c1,0.3,2.3,0.5,3.7,0.8L466.3,280z"/>
			<path class="st0" d="M527.4,251.1c0,4.4-0.6,8.4-1.9,12c-1.3,3.6-3,6.7-5.3,9.2c-2.3,2.5-5,4.5-8.1,5.9
				c-3.1,1.4-6.5,2.1-10.3,2.1c-3.7,0-7.2-0.7-10.3-2.1c-3.1-1.4-5.8-3.4-8.1-5.9c-2.3-2.5-4-5.6-5.3-9.2c-1.3-3.6-1.9-7.6-1.9-12
				c0-4.4,0.6-8.4,1.9-12c1.3-3.6,3-6.7,5.3-9.2c2.3-2.6,5-4.5,8.1-5.9c3.1-1.4,6.5-2.1,10.3-2.1c3.7,0,7.2,0.7,10.3,2.1
				c3.1,1.4,5.8,3.4,8.1,5.9c2.3,2.6,4,5.6,5.3,9.2C526.8,242.7,527.4,246.7,527.4,251.1z M520,251.1c0-7-1.6-12.6-4.9-16.7
				c-3.2-4.1-7.6-6.2-13.2-6.2c-5.6,0-9.9,2.1-13.2,6.2c-3.2,4.1-4.9,9.7-4.9,16.7c0,7,1.6,12.5,4.9,16.7c3.2,4.1,7.6,6.2,13.2,6.2
				c5.5,0,9.9-2.1,13.2-6.2C518.4,263.6,520,258.1,520,251.1z"/>
			<path class="st0" d="M579.1,272.5c-0.4,0.4-1.1,0.8-1.9,1.2c-0.9,0.5-1.9,1-3.2,1.5c-1.3,0.5-2.7,0.9-4.3,1.2
				c-1.6,0.3-3.4,0.5-5.5,0.5c-3.2,0-6.4-0.5-9.4-1.5c-3-1-5.7-2.6-7.9-4.8c-2.3-2.2-4.1-5-5.5-8.4c-1.4-3.4-2.1-7.6-2.1-12.5
				c0-4,0.6-7.6,1.8-11c1.2-3.4,3-6.3,5.2-8.8c2.3-2.5,5-4.4,8.3-5.8c3.3-1.4,7-2.1,11.1-2.1c5.2,0,9.4,0.3,12.5,1
				c3.1,0.7,5.7,1.4,7.7,2v51c0,8.4-2.2,14.3-6.5,17.9c-4.3,3.6-10.8,5.4-19.6,5.4c-3.6,0-6.9-0.3-9.8-0.8c-2.9-0.5-5.4-1.2-7.5-1.9
				l1.4-6.4c1.7,0.8,4.1,1.5,7.1,2.1c3,0.6,6,0.9,9,0.9c6.6,0,11.4-1.3,14.4-3.8c3-2.6,4.5-6.9,4.5-13.1V272.5z M579,229.9
				c-1.2-0.4-2.8-0.7-4.8-1s-4.7-0.5-8.3-0.5c-3,0-5.7,0.5-8.1,1.6c-2.3,1-4.3,2.5-6,4.4c-1.7,1.9-2.9,4.2-3.8,6.8
				c-0.9,2.6-1.3,5.5-1.3,8.7c0,3.7,0.5,6.8,1.5,9.5c1,2.6,2.3,4.8,3.9,6.4c1.6,1.7,3.5,2.9,5.6,3.6c2.1,0.8,4.2,1.1,6.4,1.1
				c3.2,0,6.1-0.5,8.7-1.4c2.6-0.9,4.7-2,6.1-3.2V229.9z"/>
		</g>
	</g>
</g>
</svg>
