<?xml version="1.0" encoding="utf-8"?>
<!-- Generator: Adobe Illustrator 23.0.2, SVG Export Plug-In . SVG Version: 6.00 Build 0)  -->
<!DOCTYPE svg PUBLIC "-//W3C//DTD SVG 1.1//EN" "http://www.w3.org/Graphics/SVG/1.1/DTD/svg11.dtd" [
	<!ENTITY ns_extend "http://ns.adobe.com/Extensibility/1.0/">
	<!ENTITY ns_ai "http://ns.adobe.com/AdobeIllustrator/10.0/">
	<!ENTITY ns_graphs "http://ns.adobe.com/Graphs/1.0/">
	<!ENTITY ns_vars "http://ns.adobe.com/Variables/1.0/">
	<!ENTITY ns_imrep "http://ns.adobe.com/ImageReplacement/1.0/">
	<!ENTITY ns_sfw "http://ns.adobe.com/SaveForWeb/1.0/">
	<!ENTITY ns_custom "http://ns.adobe.com/GenericCustomNamespace/1.0/">
	<!ENTITY ns_adobe_xpath "http://ns.adobe.com/XPath/1.0/">
]>
<svg version="1.1" id="Isolation_Mode" xmlns:x="&ns_extend;" xmlns:i="&ns_ai;" xmlns:graph="&ns_graphs;"
	 xmlns="http://www.w3.org/2000/svg" xmlns:xlink="http://www.w3.org/1999/xlink" x="0px" y="0px" viewBox="0 0 1395.8 324.5"
	 style="enable-background:new 0 0 1395.8 324.5;" xml:space="preserve">
<style type="text/css">
	.st0{fill:#FFFFFF;}
	.st1{enable-background:new    ;}
</style>
<metadata>
	<sfw  xmlns="&ns_sfw;">
		<slices></slices>
		<sliceSourceBounds  bottomLeftOrigin="true" height="324.5" width="1395.8" x="0" y="0"></sliceSourceBounds>
	</sfw>
</metadata>
<g>
	<path class="st0" d="M102.5,313.3c-0.3-0.1-0.6-0.3-1-0.4C101.9,313.1,102.2,313.2,102.5,313.3z"/>
	<path class="st0" d="M197.1,272.2L183.9,232l-8.5-26.2l-9.8-29.8l-2.8-7.9l-1.3-4l-0.6-1.2l-0.3-0.2h-0.4c-0.2,0-0.3,0.1-0.4,0.2
		l-0.2,0.2l-0.4,0.4c-0.1,0.2-0.4,0.6-0.4,0.7l-0.7,1.5l-4.8,13.6L139,220.7l-13.8,37.5l-20.7,55.9c17.4,6.6,36.2,10.2,55.9,10.4
		c18.2,0.1,35.8-2.8,52.2-8.3l-5.3-15.5L197.1,272.2z"/>
	<path class="st0" d="M104.3,314c-0.5-0.2-0.9-0.4-1.4-0.5C103.3,313.6,103.8,313.8,104.3,314z"/>
	<path class="st0" d="M323,163.2C323.6,73.6,251.7,0.6,162.5,0S0.6,71.6,0,161.2c-0.3,45.3,18,86.5,47.7,116.1
		c0.3,0.3,0.6,0.5,0.8,0.8l35.9-60.8l11.9-23.7l10.3-22.3l9.6-23.3l8.4-24.3L134.7,94l8.6-26.6l10.6-35l7.8-25.1l3.9,13.2l7.1,26.3
		l6.4,23.7l7.1,24l7.3,22.7l6.7,20.1l7.3,20.5l8.7,20.8l10.9,22.7l13.2,25.9l13.1,22.3l20,30l0,0C303.6,250.2,322.7,209,323,163.2z"
		/>
	<path d="M104.6,314.1L104.6,314.1c-0.1,0-0.2-0.1-0.3-0.1C104.4,314,104.5,314.1,104.6,314.1z"/>
	<path d="M102.9,313.4c-0.1,0-0.2-0.1-0.4-0.1C102.6,313.4,102.8,313.4,102.9,313.4z"/>
</g>
<g>
	<g>
		<g class="st1">
			<path class="st0" d="M402.4,279.6c-1.2,0-2.6-0.1-4.3-0.2c-1.6-0.1-3.3-0.3-5-0.4c-1.7-0.2-3.3-0.4-4.8-0.6
				c-1.5-0.3-2.8-0.5-3.9-0.8v-72.1c1.3-0.4,2.7-0.7,4.3-0.9c1.6-0.3,3.2-0.5,4.9-0.6c1.7-0.2,3.4-0.3,5-0.4
				c1.6-0.1,3.1-0.1,4.5-0.1c4,0,7.9,0.3,11.5,1c3.6,0.6,6.8,1.7,9.6,3.2c2.7,1.5,4.9,3.5,6.5,6s2.4,5.6,2.4,9.2c0,4-1,7.5-3.1,10.3
				s-4.8,4.8-8.3,5.9c2.2,0.5,4.1,1.2,5.9,2.2c1.8,0.9,3.4,2.1,4.8,3.6s2.4,3.3,3.2,5.4c0.8,2.1,1.1,4.7,1.1,7.6
				c0,7.1-2.8,12.5-8.4,16.2S414.2,279.6,402.4,279.6z M391.9,236.7h14.3c2.7,0,5.2-0.2,7.6-0.6s4.5-1.1,6.2-2.2
				c1.8-1,3.2-2.4,4.2-4.2s1.5-4,1.5-6.7c0-2.4-0.5-4.5-1.6-6.2s-2.6-3.1-4.6-4.1c-2-1.1-4.3-1.8-7.1-2.3c-2.7-0.5-5.8-0.7-9.1-0.7
				c-2.7,0-4.9,0.1-6.8,0.2c-1.8,0.1-3.4,0.3-4.6,0.5V236.7z M391.9,243v29.6c1.1,0.1,2.7,0.3,4.9,0.5c2.2,0.2,4.4,0.3,6.6,0.3
				c3.3,0,6.5-0.2,9.7-0.7c3.1-0.4,5.9-1.2,8.3-2.4c2.4-1.2,4.3-2.7,5.7-4.8c1.4-2,2.2-4.6,2.2-7.8c0-2.9-0.5-5.3-1.5-7.2
				s-2.5-3.4-4.3-4.6c-1.9-1.1-4.2-1.9-6.9-2.3c-2.7-0.4-5.7-0.7-9-0.7L391.9,243L391.9,243z"/>
			<path class="st0" d="M466.3,280c-2.4-0.1-4.5-0.4-6.2-0.9c-1.8-0.5-3.2-1.4-4.4-2.5c-1.2-1.1-2.1-2.6-2.7-4.3
				c-0.6-1.8-0.9-4-0.9-6.6v-69.2l7-1.3v70.3c0,1.7,0.2,3.1,0.5,4.2c0.3,1,0.8,1.9,1.5,2.5c0.6,0.6,1.5,1.1,2.5,1.4s2.3,0.5,3.7,0.8
				L466.3,280z"/>
			<path class="st0" d="M527.4,251.1c0,4.4-0.6,8.4-1.9,12c-1.3,3.6-3,6.7-5.3,9.2s-5,4.5-8.1,5.9c-3.1,1.4-6.5,2.1-10.3,2.1
				c-3.7,0-7.2-0.7-10.3-2.1c-3.1-1.4-5.8-3.4-8.1-5.9c-2.3-2.5-4-5.6-5.3-9.2s-1.9-7.6-1.9-12s0.6-8.4,1.9-12s3-6.7,5.3-9.2
				c2.3-2.6,5-4.5,8.1-5.9s6.5-2.1,10.3-2.1c3.7,0,7.2,0.7,10.3,2.1c3.1,1.4,5.8,3.4,8.1,5.9c2.3,2.6,4,5.6,5.3,9.2
				S527.4,246.7,527.4,251.1z M520,251.1c0-7-1.6-12.6-4.9-16.7c-3.2-4.1-7.6-6.2-13.2-6.2s-9.9,2.1-13.2,6.2
				c-3.2,4.1-4.9,9.7-4.9,16.7s1.6,12.5,4.9,16.7c3.2,4.1,7.6,6.2,13.2,6.2c5.5,0,9.9-2.1,13.2-6.2C518.4,263.6,520,258.1,520,251.1
				z"/>
			<path class="st0" d="M579.1,272.5c-0.4,0.4-1.1,0.8-1.9,1.2c-0.9,0.5-1.9,1-3.2,1.5s-2.7,0.9-4.3,1.2c-1.6,0.3-3.4,0.5-5.5,0.5
				c-3.2,0-6.4-0.5-9.4-1.5s-5.7-2.6-7.9-4.8c-2.3-2.2-4.1-5-5.5-8.4s-2.1-7.6-2.1-12.5c0-4,0.6-7.6,1.8-11s3-6.3,5.2-8.8
				c2.3-2.5,5-4.4,8.3-5.8c3.3-1.4,7-2.1,11.1-2.1c5.2,0,9.4,0.3,12.5,1s5.7,1.4,7.7,2v51c0,8.4-2.2,14.3-6.5,17.9
				s-10.8,5.4-19.6,5.4c-3.6,0-6.9-0.3-9.8-0.8c-2.9-0.5-5.4-1.2-7.5-1.9l1.4-6.4c1.7,0.8,4.1,1.5,7.1,2.1s6,0.9,9,0.9
				c6.6,0,11.4-1.3,14.4-3.8c3-2.6,4.5-6.9,4.5-13.1v-3.8H579.1z M579,229.9c-1.2-0.4-2.8-0.7-4.8-1s-4.7-0.5-8.3-0.5
				c-3,0-5.7,0.5-8.1,1.6c-2.3,1-4.3,2.5-6,4.4s-2.9,4.2-3.8,6.8c-0.9,2.6-1.3,5.5-1.3,8.7c0,3.7,0.5,6.8,1.5,9.5
				c1,2.6,2.3,4.8,3.9,6.4c1.6,1.7,3.5,2.9,5.6,3.6c2.1,0.8,4.2,1.1,6.4,1.1c3.2,0,6.1-0.5,8.7-1.4c2.6-0.9,4.7-2,6.1-3.2L579,229.9
				L579,229.9z"/>
		</g>
	</g>
</g>
<g>
	<g>
		<path class="st0" d="M495,65.7c-3.1-8.1-7.6-14.8-13.4-20.2c-5.8-5.8-12.5-10.3-20.6-13.4c-8.1-3.1-17-4.9-26.9-4.9h-47.5
			c-1.3,0-2.2,0.9-2.2,2.2v45.7c0,1.3,0.9,2.2,2.2,2.2h22.8c1.3,0,2.2-0.9,2.2-2.2V50.5c0-1.3,0.9-2.2,2.2-2.2h20.6
			c5.8,0,11.6,0.9,16.1,3.1c4.9,1.8,9,4.9,12.1,8.5c3.1,3.6,5.8,8.1,7.6,13.9c1.8,5.4,2.7,11.6,2.7,18.4s-0.9,13-2.7,18.4
			s-4.5,9.9-7.6,13.9c-3.1,3.6-7.2,6.7-12.1,8.5c-4.9,1.8-10.3,3.1-16.1,3.1H414c-1.3,0-2.2-0.9-2.2-2.2v-24.6
			c0-1.3-0.9-2.2-2.2-2.2h-22.8c-1.3,0-2.2,0.9-2.2,2.2v44.3c0,1.3,0.9,2.2,2.2,2.2h47.5c9.9,0,18.8-1.8,26.9-4.9
			c8.1-3.1,15.2-7.6,20.6-13.4c5.8-5.8,10.3-12.5,13.4-20.2c3.1-8.1,4.9-16.6,4.9-26S498.2,73.4,495,65.7z"/>
		<path class="st0" d="M548.3,47.8h51.1c1.3,0,2.2-0.9,2.2-2.2V29c0-1.3-0.9-2.2-2.2-2.2h-77.9c-1.3,0-2.2,0.9-2.2,2.2v124.5
			c0,1.3,0.9,2.2,2.2,2.2h77.9c1.3,0,2.2-0.9,2.2-2.2V137c0-1.3-0.9-2.2-2.2-2.2h-51.1c-1.3,0-2.2-0.9-2.2-2.2v-29.6
			c0-1.3,0.9-2.2,2.2-2.2h39c1.3,0,2.2-0.9,2.2-2.2V82.3c0-1.3-0.9-2.2-2.2-2.2h-39c-1.3,0-2.2-0.9-2.2-2.2V48.7
			C546.5,48.7,547.4,47.8,548.3,47.8z"/>
		<path class="st0" d="M729.3,27.2H710c-1.3,0-2.2,0.9-2.2,2.2v71.7c0,1.8,0,4,0,5.8c0,2.2,0.4,4.5,0.4,6.7l-64.5-82
			c-0.9-0.9-1.3-1.8-1.8-2.2c-0.4-0.4-1.3-0.9-1.8-1.3c-0.4-0.4-1.3-0.4-2.2-0.4s-1.8,0-2.7,0h-12.1c-1.3,0-2.2,0.9-2.2,2.2v123.6
			c0,1.3,0.9,2.2,2.2,2.2h19.3c1.3,0,2.2-0.9,2.2-2.2V81.4c0-1.8,0-3.6,0-5.4c0-2.2,0-4-0.4-6.3l64.1,81.5c1.3,1.8,2.7,2.7,4,3.6
			c1.3,0.9,3.1,0.9,5.4,0.9h11.6c1.3,0,2.2-0.9,2.2-2.2V29C731.5,28.1,730.6,27.2,729.3,27.2z"/>
		<path class="st0" d="M847.5,27.2h-97.6c-1.3,0-2.2,0.9-2.2,2.2v17.5c0,1.3,0.9,2.2,2.2,2.2h33.6c1.3,0,2.2,0.9,2.2,2.2v103
			c0,1.3,0.9,2.2,2.2,2.2h22.4c1.3,0,2.2-0.9,2.2-2.2V50.5c0-1.3,0.9-2.2,2.2-2.2h33.6c1.3,0,2.2-0.9,2.2-2.2V28.6
			C849.8,28.1,848.9,27.2,847.5,27.2z"/>
		<path class="st0" d="M964.4,153.1L916.1,28.6c-0.4-0.9-0.9-1.3-1.8-1.3h-24.2c-0.9,0-1.8,0.4-1.8,1.3l-48.8,124.5
			c-0.4,1.3,0.4,2.7,1.8,2.7h17.9c2.2,0,4-0.4,5.4-1.8c1.3-1.3,2.7-2.7,3.1-4l8.1-23.3c0.4-0.9,0.9-1.3,1.8-1.3h48.4
			c0.9,0,1.8,0.4,1.8,1.3l8.1,23.3c0.9,1.8,1.8,3.1,3.1,4c1.3,0.9,3.1,1.8,5.8,1.8h17.5C964,155.8,965.3,154.4,964.4,153.1z
			 M917.9,107h-32.2c-1.3,0-2.2-1.3-1.8-2.7l13-36.3c0.9-2.2,1.8-4.5,2.7-7.2c0-0.9,0.4-1.3,0.4-2.2c0.4-1.8,3.1-1.8,4,0
			c0,0.4,0.4,1.3,0.4,1.8c0.9,2.7,1.8,5.4,2.7,7.2l13,36.7C920.5,105.6,919.6,107,917.9,107z"/>
		<path class="st0" d="M1074.2,135.6l-9.4-9.9c-0.9-0.9-2.2-1.8-3.6-1.8c-0.9,0-1.8,0-2.2,0.4c-0.9,0.4-1.3,0.9-2.2,1.3
			c-1.8,1.8-3.6,3.1-5.8,4c-1.8,1.3-4,2.2-5.8,2.7c-2.2,0.9-4.5,1.3-6.7,1.3c-2.7,0.4-5.4,0.4-8.1,0.4c-4.9,0-9.9-0.9-14.3-2.7
			c-4.5-1.8-8.5-4.9-11.6-8.5c-3.1-3.6-5.8-8.5-8.1-13.9c-1.8-5.4-2.7-11.6-2.7-18.4s0.9-13,2.7-18.4s4.5-9.9,7.6-13.4
			c3.1-3.6,7.2-6.7,11.6-8.5c4.5-1.8,9.4-3.1,14.8-3.1c4.9,0,9,0.4,12.1,1.3c3.1,0.9,5.8,2.2,8.1,3.6s4,2.2,5.4,3.1
			c1.3,0.9,2.7,1.3,4.5,1.3c1.3,0,2.7-0.4,3.1-0.9c0.9-0.4,1.3-1.3,2.2-2.2l8.1-10.7c0.4-0.9,0.4-2.2-0.4-2.7
			c-2.2-2.2-4.5-4-7.2-5.8c-3.1-2.2-6.3-4-10.3-5.4c-3.6-1.3-7.6-2.7-11.6-3.6c-4-0.9-8.5-1.3-13.4-1.3c-6.3,0-12.1,0.9-17.9,2.2
			c-5.4,1.3-10.7,3.6-15.7,6.3s-9,6.3-12.5,9.9c-3.6,4-7.2,8.1-9.4,13c-2.7,4.9-4.5,10.3-6.3,16.1c-1.3,5.8-2.2,11.6-2.2,18.4
			c0,9.4,1.3,18.4,4.5,26.4s7.2,14.8,12.5,20.6c5.4,5.8,12.1,10.3,19.7,13.9c7.6,3.1,16.1,4.9,26,4.9c10.7,0,19.7-1.8,27.3-4.9
			c7.2-3.1,13.4-7.6,18.4-13.4C1075.1,137.4,1075.1,136.5,1074.2,135.6z"/>
		<path class="st0" d="M1207.2,65.3c-3.1-8.1-7.6-14.8-13.4-20.6s-12.5-10.3-20.6-13.9c-8.1-3.1-17-4.9-26.9-4.9s-18.8,1.8-26.9,4.9
			c-8.1,3.1-15.2,8.1-21.1,13.9s-10.3,13-13.4,20.6c-3.1,8.1-4.9,16.6-4.9,26s1.8,17.9,4.9,26c3.1,8.1,7.6,14.8,13.4,21.1
			c5.8,5.8,12.5,10.3,21.1,13.9c8.1,3.1,17,4.9,26.9,4.9s18.8-1.8,26.9-4.9c8.1-3.1,15.2-8.1,20.6-13.9c5.8-5.8,10.3-13,13.4-21.1
			c3.1-8.1,4.9-16.6,4.9-26S1210.3,73.4,1207.2,65.3z M1182.1,109.6c-1.8,5.4-4.5,9.9-7.6,13.4c-3.1,3.6-7.6,6.7-12.1,8.5
			c-4.9,1.8-10.3,3.1-16.1,3.1c-5.8,0-11.6-0.9-16.1-3.1c-4.9-1.8-9-4.9-12.1-8.5c-3.1-3.6-5.8-8.1-7.6-13.4s-2.7-11.6-2.7-18.4
			s0.9-13,2.7-18.4s4.5-9.9,7.6-13.4c3.1-3.6,7.6-6.7,12.1-8.5c4.9-1.8,10.3-3.1,16.1-3.1c5.8,0,11.2,0.9,16.1,3.1
			c4.9,1.8,9,4.9,12.1,8.5c3.1,3.6,5.8,8.5,7.6,13.4c1.8,5.4,2.7,11.2,2.7,18.4C1184.8,98,1183.9,104.3,1182.1,109.6z"/>
		<path class="st0" d="M1256,27.2h-22.8c-1.3,0-2.2,0.9-2.2,2.2v124.1c0,1.3,0.9,2.2,2.2,2.2h22.8c1.3,0,2.2-0.9,2.2-2.2V29
			C1258.3,28.1,1257.4,27.2,1256,27.2z"/>
		<path class="st0" d="M1393.5,27.2h-19.3c-1.3,0-2.2,0.9-2.2,2.2v71.7c0,1.8,0,4,0,5.8c0,2.2,0.4,4.5,0.4,6.7l-64.5-82
			c-0.9-0.9-1.3-1.8-1.8-2.2c-0.4-0.4-1.3-0.9-1.8-1.3c-0.4-0.4-1.3-0.4-2.2-0.4c-0.9,0-1.8,0-2.7,0h-12.1c-1.3,0-2.2,0.9-2.2,2.2
			v123.6c0,1.3,0.9,2.2,2.2,2.2h19.3c1.3,0,2.2-0.9,2.2-2.2V81.4c0-1.8,0-3.6,0-5.4c0-2.2,0-4-0.4-6.3l64.1,81.5
			c1.3,1.8,2.7,2.7,4,3.6c1.3,0.9,3.1,0.9,5.4,0.9h11.6c1.3,0,2.2-0.9,2.2-2.2V29C1395.3,28.1,1394.4,27.2,1393.5,27.2z"/>
	</g>
</g>
</svg>
