<?xml version="1.0" encoding="utf-8"?>
<!-- Generator: Adobe Illustrator 22.1.0, SVG Export Plug-In . SVG Version: 6.00 Build 0)  -->
<svg version="1.1" id="Layer_1" xmlns="http://www.w3.org/2000/svg" xmlns:xlink="http://www.w3.org/1999/xlink" x="0px" y="0px"
	 viewBox="0 0 21 109" style="enable-background:new 0 0 21 109;" xml:space="preserve">
<style type="text/css">
	.st0{enable-background:new    ;}
	.st1{fill:#FFFFFF;}
</style>
<g class="st0">
	<path class="st1" d="M20.3,100.1c0,1.2-0.2,2.3-0.6,3.4c-0.4,1-1.1,1.9-1.9,2.7s-1.8,1.4-3.1,1.8s-2.6,0.7-4.2,0.7
		c-1.6,0-3-0.2-4.2-0.7c-1.2-0.5-2.2-1.1-3.1-1.9c-0.8-0.8-1.5-1.7-1.9-2.8s-0.6-2.1-0.6-3.3c0-0.7,0-1.3,0.1-1.9
		C1,97.5,1.1,97,1.3,96.6s0.3-0.8,0.4-1.1C1.8,95.2,1.9,95,2,94.8l1.6,0.6c-0.3,0.5-0.5,1-0.8,1.7s-0.4,1.6-0.4,2.6
		c0,1.2,0.2,2.2,0.6,3.1c0.4,0.9,1,1.6,1.7,2.2c0.7,0.6,1.6,1,2.6,1.3s2.1,0.4,3.3,0.4c1.2,0,2.4-0.1,3.4-0.4s1.8-0.7,2.6-1.3
		c0.7-0.6,1.2-1.3,1.6-2.1c0.4-0.8,0.6-1.8,0.6-2.9c0-1.2-0.1-2.2-0.3-3c-0.2-0.8-0.5-1.4-0.7-1.8l1.6-0.5c0.1,0.1,0.2,0.3,0.3,0.6
		s0.2,0.7,0.4,1.2c0.1,0.5,0.2,1,0.3,1.6S20.3,99.4,20.3,100.1z"/>
	<path class="st1" d="M18.3,80.8h1.6v10.6H1.2v-1.8h17.1V80.8z"/>
	<path class="st1" d="M10.5,62c1.6,0,3,0.2,4.2,0.7c1.2,0.5,2.2,1.1,3.1,1.9c0.8,0.8,1.4,1.7,1.8,2.8c0.4,1.1,0.6,2.2,0.6,3.4
		s-0.2,2.3-0.6,3.4c-0.4,1.1-1,2-1.8,2.8s-1.8,1.4-3.1,1.9c-1.2,0.5-2.6,0.7-4.2,0.7c-1.6,0-3-0.2-4.2-0.7S4.1,77.8,3.3,77
		s-1.4-1.7-1.8-2.8C1,73.1,0.8,72,0.8,70.8s0.2-2.3,0.6-3.4c0.4-1.1,1-2,1.8-2.8c0.8-0.8,1.8-1.4,3.1-1.9C7.5,62.3,8.9,62,10.5,62z
		 M10.5,64c-1.3,0-2.4,0.2-3.4,0.5c-1,0.3-1.8,0.8-2.6,1.4C3.9,66.4,3.4,67.2,3,68s-0.6,1.8-0.6,2.8c0,1,0.2,2,0.6,2.8
		c0.4,0.8,0.9,1.6,1.6,2.1c0.7,0.6,1.6,1.1,2.6,1.4s2.1,0.5,3.4,0.5c1.3,0,2.4-0.2,3.4-0.5s1.8-0.8,2.6-1.4c0.7-0.6,1.2-1.3,1.6-2.1
		c0.4-0.8,0.6-1.8,0.6-2.8c0-1-0.2-2-0.6-2.8s-0.9-1.6-1.6-2.1c-0.7-0.6-1.6-1.1-2.6-1.4C12.9,64.1,11.8,64,10.5,64z"/>
	<path class="st1" d="M18.7,53.9c0-1.5-0.3-2.6-0.8-3.4s-1.4-1.2-2.6-1.2c-0.7,0-1.3,0.1-1.7,0.4c-0.5,0.3-0.8,0.6-1.2,1
		c-0.3,0.4-0.6,0.9-0.8,1.5s-0.5,1.1-0.7,1.8c-0.3,0.8-0.6,1.5-0.9,2.1c-0.3,0.6-0.7,1.1-1.1,1.6c-0.4,0.4-0.9,0.8-1.4,1
		c-0.5,0.2-1.1,0.3-1.8,0.3c-1.6,0-2.8-0.5-3.6-1.6c-0.8-1.1-1.2-2.5-1.2-4.4c0-0.5,0-1,0.1-1.5s0.2-0.9,0.3-1.4s0.2-0.8,0.4-1.2
		C1.7,48.6,1.9,48.3,2,48l1.5,0.6c-0.4,0.5-0.6,1.2-0.9,1.9c-0.2,0.7-0.3,1.6-0.3,2.4c0,0.6,0.1,1.1,0.2,1.6s0.3,0.9,0.6,1.3
		s0.6,0.6,1,0.9C4.5,57,5,57.1,5.5,57.1c0.6,0,1.1-0.1,1.5-0.3c0.4-0.2,0.7-0.5,1-0.9s0.5-0.8,0.8-1.4C9,54,9.3,53.4,9.5,52.8
		c0.3-0.7,0.6-1.4,0.9-2.1c0.3-0.7,0.7-1.2,1.1-1.7s0.9-0.9,1.5-1.2c0.6-0.3,1.3-0.4,2.2-0.4c1.7,0,3,0.6,3.8,1.8
		c0.8,1.2,1.3,2.8,1.3,4.8c0,0.7,0,1.4-0.1,2c-0.1,0.6-0.2,1.1-0.3,1.6c-0.1,0.5-0.3,0.9-0.4,1.2c-0.1,0.3-0.3,0.6-0.4,0.8l-1.6-0.6
		c0.1-0.2,0.2-0.4,0.4-0.7c0.1-0.3,0.3-0.7,0.4-1.1c0.1-0.4,0.2-0.9,0.3-1.4C18.7,55.1,18.7,54.5,18.7,53.9z"/>
	<path class="st1" d="M19.9,44H1.2V33.2h1.6v9h6.5v-8h1.6v8h7.5v-9.7h1.6V44z"/>
</g>
<g>
	<path class="st1" d="M14.6,22.1c0.3,0.2,0.6,0.4,1,0.4s0.7-0.1,1-0.4c0.3-0.2,0.4-0.5,0.4-0.9c0-0.3-0.1-0.6-0.4-0.9L5.9,11.2
		L16.6,2C16.9,1.8,17,1.5,17,1.2s-0.1-0.6-0.4-0.9C16.3,0.1,16,0,15.6,0c-0.3,0-0.7,0.1-1,0.3L2,11.2L14.6,22.1z"/>
</g>
</svg>
