<?xml version="1.0" encoding="utf-8"?>
<!-- Generator: Adobe Illustrator 22.1.0, SVG Export Plug-In . SVG Version: 6.00 Build 0)  -->
<svg version="1.1" id="Isolation_Mode" xmlns="http://www.w3.org/2000/svg" xmlns:xlink="http://www.w3.org/1999/xlink" x="0px"
	 y="0px" viewBox="0 0 323 324.5" style="enable-background:new 0 0 323 324.5;" xml:space="preserve">
<style type="text/css">
	.st0{fill:#FFFFFF;}
</style>
<g>
	<path class="st0" d="M102.5,313.3c-0.3-0.1-0.6-0.3-1-0.4C101.9,313.1,102.2,313.2,102.5,313.3z"/>
	<path class="st0" d="M197.1,272.2L183.9,232l-8.5-26.2l-9.8-29.8l-2.8-7.9l-1.3-4l-0.6-1.2l-0.3-0.2h-0.4c-0.2,0-0.3,0.1-0.4,0.2
		l-0.2,0.2l-0.4,0.4c-0.1,0.2-0.4,0.6-0.4,0.7l-0.7,1.5l-4.8,13.6L139,220.7l-13.8,37.5l-20.7,55.9c17.4,6.6,36.2,10.2,55.9,10.4
		c18.2,0.1,35.8-2.8,52.2-8.3l-5.3-15.5L197.1,272.2z"/>
	<path class="st0" d="M104.3,314c-0.5-0.2-0.9-0.4-1.4-0.5C103.3,313.6,103.8,313.8,104.3,314z"/>
	<path class="st0" d="M323,163.2C323.6,73.6,251.7,0.6,162.5,0S0.6,71.6,0,161.2c-0.3,45.3,18,86.5,47.7,116.1
		c0.3,0.3,0.6,0.5,0.8,0.8l35.9-60.8l11.9-23.7l10.3-22.3l9.6-23.3l8.4-24.3L134.7,94l8.6-26.6l10.6-35l7.8-25.1l3.9,13.2l7.1,26.3
		l6.4,23.7l7.1,24l7.3,22.7l6.7,20.1l7.3,20.5l8.7,20.8l10.9,22.7l13.2,25.9l13.1,22.3l20,30l0,0C303.6,250.2,322.7,209,323,163.2z"
		/>
	<path d="M104.6,314.1L104.6,314.1c-0.1,0-0.2-0.1-0.3-0.1C104.4,314,104.5,314.1,104.6,314.1z"/>
	<path d="M102.9,313.4c-0.1,0-0.2-0.1-0.4-0.1C102.6,313.4,102.8,313.4,102.9,313.4z"/>
</g>
</svg>
