<?xml version="1.0" encoding="utf-8"?>
<!-- Generator: Adobe Illustrator 22.1.0, SVG Export Plug-In . SVG Version: 6.00 Build 0)  -->
<svg version="1.1" id="Layer_1" xmlns="http://www.w3.org/2000/svg" xmlns:xlink="http://www.w3.org/1999/xlink" x="0px" y="0px"
	 viewBox="0 0 302.8 311.6" style="enable-background:new 0 0 302.8 311.6;" xml:space="preserve">
<style type="text/css">
	.st0{fill:#333333;}
</style>
<g>
	<path class="st0" d="M289.7,311.6c-3.3-0.7-5.7-2.8-8-5.1c-31.2-31.1-62.4-62.2-93.6-93.2c-6.9-6.9-13.8-13.8-20.7-20.6
		c-0.4-0.4-0.7-0.7-1.1-1c-49.2,34.4-113.6,20.5-146-23.9C-11.3,124.2-5.4,64.2,33.8,28.1C73.5-8.5,133.7-9.3,174,25.4
		c22.3,19.2,34.7,43.7,36.6,73.2c1.9,29.4-7.5,55-26.7,77.4c0.7,0.7,1.3,1.5,2,2.2c18.9,19.1,37.9,38.1,56.8,57.2
		c18.3,18.4,36.6,36.8,54.9,55.2c2.3,2.3,4.5,4.5,5.1,7.9c0,1.1,0,2.2,0,3.3c-0.7,2.4-1.7,4.7-3.6,6.5c-1.8,1.7-3.9,2.5-6.2,3.2
		C291.9,311.6,290.8,311.6,289.7,311.6z M188.3,105.5c0.3-46.2-38.4-83.7-84.4-82.9c-43.5,0.8-80.3,36.4-81.3,81
		c-1,46.3,36.3,84.5,82.5,84.7C153.3,188.4,188.7,148.6,188.3,105.5z"/>
</g>
</svg>
