<?xml version="1.0" encoding="utf-8"?>
<!-- Generator: Adobe Illustrator 22.1.0, SVG Export Plug-In . SVG Version: 6.00 Build 0)  -->
<svg version="1.1" id="Layer_1" xmlns="http://www.w3.org/2000/svg" xmlns:xlink="http://www.w3.org/1999/xlink" x="0px" y="0px"
	 viewBox="0 0 21 101" style="enable-background:new 0 0 21 101;" xml:space="preserve">
<style type="text/css">
	.st0{enable-background:new    ;}
	.st1{fill:#FFFFFF;}
</style>
<g class="st0">
	<path class="st1" d="M10.5,83.1c1.6,0,3,0.2,4.2,0.7c1.2,0.5,2.2,1.1,3.1,1.9s1.4,1.7,1.8,2.8c0.4,1.1,0.6,2.2,0.6,3.4
		s-0.2,2.3-0.6,3.4c-0.4,1.1-1,2-1.8,2.8s-1.8,1.4-3.1,1.9c-1.2,0.5-2.6,0.7-4.2,0.7c-1.6,0-3-0.2-4.2-0.7c-1.2-0.5-2.2-1.1-3.1-1.9
		s-1.4-1.7-1.8-2.8c-0.4-1.1-0.6-2.2-0.6-3.4s0.2-2.3,0.6-3.4c0.4-1.1,1-2,1.8-2.8s1.8-1.4,3.1-1.9C7.5,83.4,8.9,83.1,10.5,83.1z
		 M10.5,85.1c-1.3,0-2.4,0.2-3.4,0.5s-1.8,0.8-2.6,1.4c-0.7,0.6-1.2,1.3-1.6,2.1s-0.6,1.8-0.6,2.8s0.2,2,0.6,2.8
		c0.4,0.8,0.9,1.6,1.6,2.1c0.7,0.6,1.6,1.1,2.6,1.4s2.1,0.5,3.4,0.5c1.3,0,2.4-0.2,3.4-0.5s1.8-0.8,2.6-1.4s1.2-1.3,1.6-2.1
		c0.4-0.8,0.6-1.8,0.6-2.8s-0.2-2-0.6-2.8s-0.9-1.6-1.6-2.1s-1.6-1.1-2.6-1.4S11.8,85.1,10.5,85.1z"/>
	<path class="st1" d="M1,74.3c0-2.6,0.5-4.6,1.5-5.9c1-1.3,2.4-1.9,4.3-1.9c1.1,0,2,0.2,2.7,0.6c0.7,0.4,1.3,0.9,1.8,1.6
		s0.8,1.6,1,2.6c0.2,1,0.3,2.2,0.3,3.4v2.5h7.2V79H1.5c-0.2-0.6-0.3-1.4-0.4-2.3C1.1,75.9,1,75,1,74.3z M2.6,74.2
		c0,0.7,0,1.3,0.1,1.7c0,0.5,0.1,0.9,0.1,1.2h8.3v-2.3c0-1-0.1-1.9-0.2-2.7c-0.1-0.8-0.3-1.5-0.6-2.1c-0.3-0.6-0.8-1-1.3-1.3
		c-0.6-0.3-1.3-0.5-2.1-0.5c-0.8,0-1.5,0.2-2.1,0.5c-0.5,0.3-1,0.8-1.3,1.3c-0.3,0.5-0.5,1.2-0.7,1.9C2.7,72.8,2.6,73.5,2.6,74.2z"
		/>
	<path class="st1" d="M19.9,63H1.2V52.2h1.6v9h6.5v-8h1.6v8h7.5v-9.7h1.6V63z"/>
	<path class="st1" d="M19.9,35.3c-0.6,0.3-1.4,0.8-2.2,1.3c-0.9,0.5-1.8,1.1-2.7,1.7c-1,0.6-1.9,1.3-3,2c-1,0.7-2,1.4-3,2.1
		c-1,0.7-1.9,1.4-2.7,2c-0.8,0.7-1.6,1.2-2.2,1.8h15.8V48H1.2v-1.5c1-0.9,2.2-1.9,3.6-3c1.3-1,2.7-2.1,4.1-3.1c1.4-1,2.8-2,4.1-2.8
		c1.3-0.9,2.5-1.6,3.5-2.2H1.2v-1.8h18.7V35.3z"/>
</g>
<g>
	<path class="st1" d="M6.4,0.4C6.1,0.1,5.8,0,5.4,0s-0.7,0.1-1,0.4C4.1,0.6,4,0.9,4,1.2s0.1,0.6,0.4,0.9l10.7,9.2L4.4,20.4
		C4.1,20.7,4,21,4,21.3s0.1,0.6,0.4,0.9s0.6,0.4,1,0.4c0.3,0,0.7-0.1,1-0.3l12.6-11L6.4,0.4z"/>
</g>
</svg>
