<?xml version="1.0" encoding="utf-8"?>
<!-- Generator: Adobe Illustrator 22.1.0, SVG Export Plug-In . SVG Version: 6.00 Build 0)  -->
<svg version="1.1" id="Isolation_Mode" xmlns="http://www.w3.org/2000/svg" xmlns:xlink="http://www.w3.org/1999/xlink" x="0px"
	 y="0px" viewBox="0 0 222.2 328.1" style="enable-background:new 0 0 222.2 328.1;" xml:space="preserve">
<style type="text/css">
	.st0{opacity:0.3;}
	.st1{fill:#C1C1C1;}
</style>
<g class="st0">
	<path class="st1" d="M23.5,261.7c-0.8,0-1.5,0.7-1.5,1.5s0.7,1.5,1.5,1.5h8.7v8.7c0,0.8,0.7,1.5,1.5,1.5s1.5-0.7,1.5-1.5v-8.7h8.7
		c0.8,0,1.5-0.7,1.5-1.5s-0.7-1.5-1.5-1.5h-8.7V253c0-0.8-0.7-1.5-1.5-1.5s-1.5,0.7-1.5,1.5v8.7H23.5z"/>
	<path class="st1" d="M108.8,279.4h-8.7v-8.7c0-0.8-0.7-1.5-1.5-1.5s-1.5,0.7-1.5,1.5v8.7h-8.7c-0.8,0-1.5,0.7-1.5,1.5
		s0.7,1.5,1.5,1.5h8.7v8.7c0,0.8,0.7,1.5,1.5,1.5s1.5-0.7,1.5-1.5v-8.7h8.7c0.8,0,1.5-0.7,1.5-1.5
		C110.3,280,109.6,279.4,108.8,279.4z"/>
	<path class="st1" d="M1.2,117.3c-4.1,0-7.5,3.4-7.5,7.5c0,4.1,3.4,7.5,7.5,7.5s7.5-3.4,7.5-7.5S5.3,117.3,1.2,117.3z M1.2,129.3
		c-2.5,0-4.5-2-4.5-4.5s2-4.5,4.5-4.5s4.5,2,4.5,4.5S3.7,129.3,1.2,129.3z"/>
	<path class="st1" d="M61.2,259.1c-4.1,0-7.5,3.4-7.5,7.5s3.4,7.5,7.5,7.5c4.1,0,7.5-3.4,7.5-7.5S65.3,259.1,61.2,259.1z
		 M61.2,271.1c-2.5,0-4.5-2-4.5-4.5s2-4.5,4.5-4.5s4.5,2,4.5,4.5S63.7,271.1,61.2,271.1z"/>
	<path class="st1" d="M32.6,109.5c0,0.8,0.7,1.5,1.5,1.5s1.5-0.7,1.5-1.5v-8.7h8.7c0.8,0,1.5-0.7,1.5-1.5s-0.7-1.5-1.5-1.5h-8.7V89
		c0-0.8-0.7-1.5-1.5-1.5s-1.5,0.7-1.5,1.5v8.7h-8.7c-0.8,0-1.5,0.7-1.5,1.5s0.7,1.5,1.5,1.5h8.7V109.5z"/>
	<path class="st1" d="M109.2,115.4h-8.7v-8.7c0-0.8-0.7-1.5-1.5-1.5s-1.5,0.7-1.5,1.5v8.7h-8.7c-0.8,0-1.5,0.7-1.5,1.5
		s0.7,1.5,1.5,1.5h8.7v8.7c0,0.8,0.7,1.5,1.5,1.5s1.5-0.7,1.5-1.5v-8.7h8.7c0.8,0,1.5-0.7,1.5-1.5
		C110.7,116.1,110,115.4,109.2,115.4z"/>
	<path class="st1" d="M69.1,102.7c0-4.1-3.4-7.5-7.5-7.5c-4.1,0-7.5,3.4-7.5,7.5s3.4,7.5,7.5,7.5C65.7,110.2,69.1,106.8,69.1,102.7z
		 M61.6,107.2c-2.5,0-4.5-2-4.5-4.5s2-4.5,4.5-4.5s4.5,2,4.5,4.5C66.1,105.1,64.1,107.2,61.6,107.2z"/>
	<path class="st1" d="M130.8,225.7l-11.6-32c-1.2-3.4-4.5-5.7-8.1-5.7c-1,0-2,0.2-2.9,0.5l-6.3,2.3c-3.2,1.2-5.3,4-5.6,7.2
		c-1.8-1.2-3.9-1.9-6.2-1.9c-1,0-2,0.1-2.9,0.4h-0.1c-0.6,0.2-1.3,0.3-1.9,0.3c-2.2,0-4.3-1.3-5.1-3.3l-2.8-7.7
		c-1.1-3.2-4.2-5.3-7.6-5.3c-0.9,0-1.9,0.2-2.7,0.5c-4.2,1.5-6.3,6.1-4.8,10.3l4.5,12.5l-16.3,5.9c-2,0.7-3.6,2.2-4.5,4.1
		c-0.9,1.9-1,4.1-0.3,6c1,2.8,3.5,4.8,6.4,5.1c-0.3,1.4-0.2,2.9,0.3,4.3c1,2.8,3.6,4.8,6.5,5.2c-0.5,1.5-0.4,3.2,0.1,4.7
		c1,2.7,3.4,4.6,6.2,4.9c-0.3,1.2-0.2,2.5,0.2,3.6c0.9,2.6,3.4,4.3,6.2,4.3c0.8,0,1.5-0.1,2.2-0.4l28.5-10.3c2.8-1,5.1-3,6.4-5.7
		c0.1-0.2,0.2-0.4,0.3-0.6c1.5,2.7,4.4,4.4,7.5,4.4c1,0,2-0.2,2.9-0.5l6.3-2.3C130.1,235.1,132.4,230.2,130.8,225.7z M106,234.4
		c-1,2-2.6,3.4-4.7,4.2l-28.5,10.3c-0.4,0.1-0.8,0.2-1.2,0.2c-1.5,0-2.9-1-3.4-2.4c-0.4-1.2-0.2-2.4,0.5-3.4
		c0.4-0.5,0.4-1.2,0.1-1.8c-0.3-0.4-0.8-0.7-1.2-0.7c-0.1,0-0.3,0-0.4,0.1c-0.4,0.1-0.8,0.2-1.2,0.2c-1.9,0-3.5-1.2-4.2-2.9
		c-0.5-1.5-0.2-3.2,0.8-4.4c0.4-0.5,0.5-1.2,0.1-1.8s-1-0.8-1.7-0.6c-0.4,0.1-0.8,0.2-1.3,0.2c-2.1,0-3.9-1.3-4.6-3.2
		c-0.5-1.4-0.4-2.9,0.4-4.1c0.3-0.5,0.3-1.1-0.1-1.6c-0.3-0.5-0.9-0.7-1.5-0.6c-0.3,0.1-0.6,0.1-0.9,0.1c-2.1,0-3.9-1.3-4.6-3.2
		c-0.4-1.2-0.4-2.6,0.2-3.7c0.6-1.2,1.5-2.1,2.8-2.5l17.7-6.4c0.4-0.1,0.7-0.4,0.8-0.8c0.2-0.4,0.2-0.8,0.1-1.1l-5-13.9
		c-0.9-2.6,0.4-5.5,3-6.5c0.6-0.2,1.1-0.3,1.7-0.3c2.1,0,4,1.3,4.7,3.3l2.8,7.7c1.4,3.2,4.5,5.2,7.9,5.2c1,0,1.9-0.2,2.9-0.5
		c0.7-0.2,1.4-0.3,2.1-0.3c3.4,0,6.4,2.1,7.6,5.2l8.7,24C107.1,230.3,107,232.4,106,234.4z M118.4,236.2c-0.6,0.2-1.3,0.3-1.9,0.3
		c-2.3,0-4.4-1.5-5.2-3.7l-2-5.5l0,0l-8.1-22.5l-1.5-4c-1-2.9,0.5-6.1,3.3-7.1l6.3-2.3c0.6-0.2,1.3-0.3,1.9-0.3
		c2.3,0,4.4,1.5,5.2,3.7l11.6,32c1,2.9-0.5,6.1-3.3,7.1L118.4,236.2z"/>
	<path class="st1" d="M109.8,197.5c-0.6,0-1.2,0.1-1.8,0.3c-1.3,0.5-2.3,1.4-2.9,2.7c-0.6,1.3-0.6,2.7-0.2,4c0.7,2,2.7,3.4,4.9,3.4
		c0.6,0,1.2-0.1,1.8-0.3c1.3-0.5,2.3-1.4,2.9-2.7c0.6-1.3,0.6-2.7,0.2-4C113.9,198.8,111.9,197.5,109.8,197.5z M111.7,203.5
		c-0.2,0.5-0.7,0.9-1.2,1.1c-1.1,0.4-2.4-0.2-2.8-1.3c-0.2-0.5-0.2-1.1,0.1-1.7c0.2-0.5,0.7-0.9,1.2-1.1c0.2-0.1,0.5-0.1,0.7-0.1
		c0.9,0,1.7,0.6,2,1.4C112,202.4,112,203,111.7,203.5z"/>
	<path class="st1" d="M-55.5,22c0,0.8,0.7,1.5,1.5,1.5c0.8,0,1.5-0.7,1.5-1.5v-8.7h8.7c0.8,0,1.5-0.7,1.5-1.5s-0.7-1.5-1.5-1.5h-8.7
		V1.5c0-0.8-0.7-1.5-1.5-1.5s-1.5,0.7-1.5,1.5v8.7h-8.8c-0.8,0-1.5,0.7-1.5,1.5s0.7,1.5,1.5,1.5h8.7L-55.5,22L-55.5,22z"/>
	<path class="st1" d="M86.6,143.1h-8.7v-8.7c0-0.8-0.7-1.5-1.5-1.5s-1.5,0.7-1.5,1.5v8.7h-8.7c-0.8,0-1.5,0.7-1.5,1.5
		s0.7,1.5,1.5,1.5h8.7v8.7c0,0.8,0.7,1.5,1.5,1.5s1.5-0.7,1.5-1.5v-8.7h8.7c0.8,0,1.5-0.7,1.5-1.5S87.4,143.1,86.6,143.1z"/>
	<path class="st1" d="M-53.9,76.7l10.3,4.1L4,99.8c0.2,0.1,0.4,0.1,0.6,0.1c0.6,0,1.2-0.4,1.4-0.9l19.4-48.4c0.3-0.8-0.1-1.6-0.8-2
		L9.1,42.4c1.8-5.1,3.4-11.9,1.7-16.5c-0.9-2.3-2.4-3.9-4.7-4.8c-1.6-0.7-3.3-0.8-5-0.4c-0.3-0.5-0.7-1-1.2-1.5
		c-2.1-2-4.4-2.9-7-2.5c-6.1,0.9-11,8.9-12.3,11.3c-0.4,0.7-0.8,1.5-1.3,2.4l-2.4-0.8l-10.3-4.1c-0.4-0.1-0.8-0.1-1.1,0
		c-0.4,0.2-0.7,0.5-0.8,0.8l-19.4,48.5C-55,75.5-54.7,76.4-53.9,76.7z M21.9,50.9L3.6,96.5l-44.7-17.9l9.1-22.8l9.1-22.8l9.8,3.9
		c-1.1,2.5-1.8,4.4-1.9,4.6c-0.3,0.8,0.1,1.6,0.9,1.9c0.8,0.3,1.6-0.1,1.9-0.9c0.4-1.1,1-2.7,1.9-4.5l15.4,6.1
		c-0.7,1.8-1.4,3.3-2,4.4c-0.4,0.7-0.1,1.6,0.7,2c0.2,0.1,0.5,0.2,0.7,0.2c0.5,0,1.1-0.3,1.3-0.8c0.1-0.2,1-2,2.1-4.6L21.9,50.9z
		 M-2.8,37.7l-6.1-2.4c2.2-4.1,5.1-8.6,8.3-10.7C0.4,28.7-1.5,34.3-2.8,37.7z M4.9,23.9c1.4,0.6,2.4,1.6,3,3.1
		c1.4,3.6,0,9.5-1.7,14.4L0,38.9c1.5-4,3.7-10.3,2.3-15.3C3.1,23.4,4,23.5,4.9,23.9z M-16.9,29.5c2.3-4.2,6.4-9.3,10.2-9.8
		c1.6-0.2,3,0.3,4.4,1.7c0.2,0.2,0.3,0.3,0.4,0.5c-4.1,2.5-7.5,7.8-9.8,12.3l-6.3-2.5C-17.6,30.8-17.3,30.2-16.9,29.5z M-33.1,28.8
		l7.5,3l-9.1,22.8l-9.1,22.8l-7.5-3L-33.1,28.8z"/>
	<path class="st1" d="M132.6,17.3c4.1,0,7.5-3.4,7.5-7.5s-3.4-7.5-7.5-7.5s-7.5,3.4-7.5,7.5C125.1,14,128.4,17.3,132.6,17.3z
		 M132.6,5.4c2.5,0,4.5,2,4.5,4.5s-2,4.5-4.5,4.5s-4.5-2-4.5-4.5S130.1,5.4,132.6,5.4z"/>
	<path class="st1" d="M13.2,257.5l-24.1-21.8l4.2-4.6c0.4-0.4,0.5-1,0.3-1.5s-0.6-0.9-1.1-1l-23.6-5.1c-0.5-0.1-1.1,0.1-1.4,0.5
		c-0.4,0.4-0.5,1-0.3,1.5l7.4,23.1c0.2,0.5,0.6,0.9,1.1,1s1.1-0.1,1.4-0.5l4.2-4.6l24.1,21.8c0.3,0.3,0.6,0.4,1,0.4c0,0,0,0,0.1,0
		c0.4,0,0.8-0.2,1-0.5l5.9-6.5C13.9,259,13.9,258.1,13.2,257.5z M6.2,263l-24.1-21.8c-0.3-0.3-0.6-0.4-1-0.4c0,0,0,0-0.1,0
		c-0.4,0-0.8,0.2-1,0.5l-3.4,3.8l-5.8-18.1l18.6,4l-3.4,3.8c-0.3,0.3-0.4,0.7-0.4,1.1c0,0.4,0.2,0.8,0.5,1l24.1,21.8L6.2,263z"/>
	<path class="st1" d="M184.9,221.3c0.2,0.1,0.5,0.2,0.8,0.2s0.5-0.1,0.8-0.2c0.6-0.4,15.8-9.6,18.3-20.8c1.2-5.6-0.2-8.8-1.6-10.6
		c-1.5-1.9-3.8-3-6.4-3c-4,0-8,2.4-11,6.5c-3-4.1-7-6.5-11-6.5c-2.6,0-4.9,1.1-6.4,3c-1.4,1.8-2.8,5-1.6,10.6
		C169.1,211.7,184.2,220.9,184.9,221.3z M170.5,191.8c1-1.2,2.4-1.9,4.1-1.9c2.7,0,6.7,1.8,9.8,7c0.3,0.5,0.8,0.7,1.3,0.7
		s1-0.3,1.3-0.7c3-5.1,7-7,9.8-7c1.7,0,3.1,0.6,4.1,1.9c1.4,1.8,1.8,4.6,1,8.1c-1.9,8.6-13.1,16.4-16.1,18.4
		c-3.1-2-14.2-9.7-16.1-18.4C168.7,196.4,169.1,193.5,170.5,191.8z"/>
	<path class="st1" d="M161.6,237.2l14.7-0.1l7.9,16.8c0.2,0.5,0.8,0.9,1.4,0.9l0,0c0.6,0,1.1-0.4,1.4-0.9l7.5-16.9l14.2-0.1
		c3.6,0,7-1.4,9.6-4s4-6,3.9-9.6l-0.1-37.9c0-7.5-6.1-13.5-13.6-13.5l-46.9,0.2c-7.5,0-13.6,6.1-13.5,13.6l0.1,37.9
		C148,231.1,154.1,237.2,161.6,237.2z M161.4,175.1l47-0.2c5.8,0,10.6,4.7,10.6,10.5l0.1,37.9c0,2.8-1.1,5.5-3.1,7.5
		s-4.6,3.1-7.5,3.1l-15.1,0.1c-0.6,0-1.1,0.4-1.4,0.9l-6.5,14.8l-6.9-14.7c-0.2-0.5-0.8-0.9-1.4-0.9l0,0l-15.7,0.1
		c-5.8,0-10.6-4.7-10.6-10.5l-0.1-37.9C150.9,179.9,155.6,175.1,161.4,175.1z"/>
	<path class="st1" d="M-41.9,203.5c0.2,0.1,0.5,0.2,0.8,0.2s0.5-0.1,0.8-0.2c0.5-0.3,11.1-6.7,12.9-14.7c0.9-4-0.2-6.4-1.2-7.7
		c-1.2-1.4-2.9-2.2-4.8-2.2c-2.8,0-5.5,1.5-7.7,4.2c-2.1-2.7-4.9-4.2-7.7-4.2c-1.9,0-3.7,0.8-4.8,2.2c-1,1.3-2.1,3.7-1.2,7.7
		C-53,196.8-42.3,203.3-41.9,203.5z M-51.2,183c0.7-0.9,1.8-1.1,2.5-1.1c1.8,0,4.4,1.2,6.4,4.6c0.3,0.5,0.8,0.7,1.3,0.7
		s1-0.3,1.3-0.7c2-3.4,4.6-4.6,6.4-4.6c0.7,0,1.7,0.2,2.5,1.1c0.9,1.1,1.1,3,0.6,5.2c-1.3,5.6-8.4,10.7-10.7,12.3
		c-2.4-1.6-9.5-6.7-10.7-12.3C-52.3,186-52.1,184.1-51.2,183z"/>
	<path class="st1" d="M94.3,299.5c-2.8,0-5.5,1.5-7.7,4.2c-2.1-2.7-4.9-4.2-7.7-4.2c-1.9,0-3.7,0.8-4.8,2.2c-1,1.3-2.1,3.7-1.2,7.7
		c1.8,8,12.4,14.4,12.9,14.7c0.2,0.1,0.5,0.2,0.8,0.2s0.5-0.1,0.8-0.2c0.5-0.3,11.1-6.7,12.9-14.7c0.9-4-0.2-6.4-1.2-7.7
		C98,300.3,96.3,299.5,94.3,299.5z M97.4,308.8c-1.3,5.6-8.4,10.7-10.7,12.3c-2.4-1.6-9.5-6.7-10.7-12.3c-0.5-2.2-0.3-4.1,0.6-5.2
		c0.7-0.9,1.8-1.1,2.5-1.1c1.8,0,4.4,1.2,6.4,4.6c0.3,0.5,0.8,0.7,1.3,0.7s1-0.3,1.3-0.7c2-3.4,4.6-4.6,6.4-4.6
		c0.7,0,1.7,0.2,2.5,1.1C97.7,304.7,97.9,306.6,97.4,308.8z"/>
	<path class="st1" d="M-16.3,184.1c0.2,0,0.4,0,0.5-0.1l3.1-1v18.8c0,0.7,0.6,1.3,1.2,1.3c0.7,0,1.2-0.6,1.2-1.3v-20.2
		c0-0.7-0.5-1.2-1.2-1.2h-0.1c-0.4,0-0.9,0.1-1.4,0.3l-3.7,1.3c-0.5,0.2-0.9,0.5-0.9,1.1C-17.3,183.7-16.8,184.1-16.3,184.1z"/>
	<path class="st1" d="M-4.2,202.9H9.2c0.6,0,1.2-0.5,1.2-1.1s-0.5-1.1-1.2-1.1H-1.6l5.9-5.3c3.9-3.4,5.6-5.4,5.6-8.6v-0.1
		c0-3.6-2.9-6.3-6.9-6.3c-3.7,0-5.7,1.5-7.5,4.1c-0.2,0.2-0.3,0.4-0.3,0.7c0,0.6,0.5,1.1,1.1,1.1c0.4,0,0.7-0.2,0.9-0.4
		c1.6-2.1,3.2-3.2,5.5-3.2c2.4,0,4.5,1.7,4.5,4.3c0,2.2-1.2,3.9-4.6,7l-7.6,6.7c-0.4,0.4-0.6,0.7-0.6,1.2
		C-5.5,202.4-5,202.9-4.2,202.9z"/>
	<path class="st1" d="M16.1,203.1c0.7,0,1.2-0.5,1.2-1.2v-3.1l3.4-3.4l5.7,7.2c0.3,0.4,0.6,0.6,1,0.6c0.7,0,1.2-0.5,1.2-1.1
		c0-0.3-0.1-0.5-0.3-0.8l-5.9-7.4l5.4-5.3c0.3-0.3,0.5-0.6,0.5-1c0-0.6-0.4-1.1-1.1-1.1c-0.4,0-0.7,0.2-1,0.5l-8.9,9.1V181
		c0-0.7-0.5-1.2-1.2-1.2s-1.2,0.6-1.2,1.2v21C14.9,202.5,15.4,203.1,16.1,203.1z"/>
	<path class="st1" d="M-54.3,256.9c-0.6-0.6-1.5-0.6-2.1,0l-8.8,8.8c-0.6,0.6-0.6,1.5,0,2.1c0.3,0.3,0.7,0.4,1.1,0.4
		s0.8-0.1,1.1-0.4l8.8-8.8C-53.7,258.5-53.7,257.5-54.3,256.9z"/>
	<path class="st1" d="M-58.2,253c-0.6-0.6-1.5-0.6-2.1,0l-8.8,8.8c-0.6,0.6-0.6,1.5,0,2.1c0.3,0.3,0.7,0.4,1.1,0.4s0.8-0.1,1.1-0.4
		l8.8-8.8C-57.6,254.6-57.6,253.6-58.2,253z"/>
	<path class="st1" d="M178.2,8.3c-18.2,0-33,14.8-33,33s14.8,33,33,33s33-14.8,33-33C211.2,23.2,196.4,8.3,178.2,8.3z M178.2,71.4
		c-16.5,0-30-13.5-30-30s13.5-30,30-30s30,13.5,30,30S194.8,71.4,178.2,71.4z"/>
	<path class="st1" d="M166.8,22.1c-0.5,0.3-0.8,0.8-0.8,1.3v35.9c0,0.5,0.3,1,0.8,1.3c0.2,0.1,0.5,0.2,0.8,0.2s0.5-0.1,0.8-0.2
		l31.1-18c0.5-0.3,0.8-0.8,0.8-1.3s-0.3-1-0.8-1.3l-31.1-18C167.9,21.8,167.3,21.8,166.8,22.1z M169.1,26l26.6,15.4l-26.6,15.4
		L169.1,26L169.1,26z"/>
	<path class="st1" d="M53,79.9l14.7-0.1l7.9,16.9c0.2,0.5,0.8,0.9,1.4,0.9l0,0c0.6,0,1.1-0.4,1.4-0.9l7.5-16.9l14.2-0.1
		c7.5,0,13.6-6.1,13.5-13.6l-0.1-37.9c0-7.5-6.1-13.5-13.6-13.5L53,14.9c-3.6,0-7,1.4-9.6,4s-4,6-3.9,9.6l0.1,37.9
		C39.4,73.9,45.5,79.9,53,79.9z M45.4,21c2-2,4.6-3.1,7.5-3.1l47-0.2c5.8,0,10.6,4.7,10.6,10.5l0.1,37.9c0,5.8-4.7,10.6-10.5,10.6
		L85,76.8c-0.6,0-1.1,0.4-1.4,0.9l-6.7,14.7L70,77.7c-0.2-0.5-0.8-0.9-1.4-0.9l0,0l-15.7,0.1c-5.8,0-10.6-4.7-10.6-10.5l-0.1-37.9
		C42.3,25.6,43.4,23,45.4,21z"/>
	<path class="st1" d="M57.3,67.4c0.8-0.3,1.1-1.2,0.8-2c0,0-0.8-2.1,0-4c0.6-1.3,1.7-2.2,3.5-2.9c1.5-0.6,3-1,4.5-1.5
		c3.8-1.1,6.8-2,7.8-4.4c0.5-1.2,0.4-2.6-0.5-4.2c-0.6-1.2-1.2-2.2-1.8-3.1c-1.6-2.5-2.4-3.8-1.7-8.9c0.7-5.8,6.2-5.9,6.9-5.9
		c0.6,0,6.2,0.3,6.7,6.1c0.5,5.1-0.4,6.4-2,8.9c-0.6,0.8-1.2,1.8-1.9,3c-0.9,1.6-1.1,3-0.6,4.2c0.9,2.4,3.9,3.4,7.6,4.6
		c1.4,0.5,2.9,1,4.4,1.6c1.8,0.7,2.9,1.7,3.4,3c0.8,1.9-0.1,3.9-0.1,4c-0.3,0.8,0,1.6,0.7,2c0.2,0.1,0.4,0.1,0.6,0.1
		c0.6,0,1.1-0.3,1.4-0.9c0.1-0.1,1.4-3.2,0.2-6.3c-0.8-2.1-2.5-3.7-5.1-4.7c-1.6-0.7-3.2-1.2-4.6-1.7c-2.6-0.9-5.4-1.8-5.8-2.9
		c-0.2-0.5,0.1-1.2,0.4-1.7c0.6-1.1,1.2-2,1.7-2.8c2-3,3-4.9,2.5-10.8c-0.6-6.9-6.6-8.8-9.6-8.9c-3.1,0-9.1,1.7-9.9,8.5
		c-0.7,5.9,0.3,7.8,2.2,10.9c0.5,0.8,1.1,1.7,1.7,2.9c0.3,0.5,0.6,1.2,0.4,1.7c-0.4,1-3.2,1.9-5.9,2.7c-1.4,0.4-3,0.9-4.7,1.5
		c-2.6,1-4.4,2.5-5.2,4.5c-1.3,3.1-0.1,6.2,0,6.3C55.6,67.4,56.5,67.7,57.3,67.4z"/>
	<path class="st1" d="M212.1,273.3l-23.2,6.8c-0.5,0.2-0.9,0.6-1,1.1s0,1.1,0.4,1.4l4.5,4.3l-22.4,23.5c-0.3,0.3-0.4,0.7-0.4,1.1
		s0.2,0.8,0.5,1.1l6.4,6.1c0.3,0.3,0.7,0.4,1,0.4c0.4,0,0.8-0.2,1.1-0.5l22.4-23.5l4.5,4.3c0.4,0.4,0.9,0.5,1.5,0.4
		c0.5-0.2,0.9-0.6,1-1.1l5.7-23.5c0.1-0.5,0-1.1-0.4-1.4C213.1,273.3,212.6,273.1,212.1,273.3z M205.9,295.4l-3.7-3.5
		c-0.6-0.6-1.5-0.5-2.1,0l-22.4,23.5l-4.2-4l22.4-23.5c0.3-0.3,0.4-0.7,0.4-1.1s-0.2-0.8-0.5-1l-3.7-3.5l18.3-5.3L205.9,295.4z"/>
	<path class="st1" d="M178.2,143.1c-4.1,0-7.5,3.4-7.5,7.5s3.4,7.5,7.5,7.5s7.5-3.4,7.5-7.5C185.7,146.4,182.3,143.1,178.2,143.1z
		 M178.2,155c-2.5,0-4.5-2-4.5-4.5s2-4.5,4.5-4.5s4.5,2,4.5,4.5S180.7,155,178.2,155z"/>
	<path class="st1" d="M182.3,124.2v-15.7c0-5.1-4.2-9.3-9.3-9.3h-4.7v-7.6c0-5.1-4.2-9.3-9.3-9.3h-38.7c-5.1,0-9.3,4.2-9.3,9.3v15.7
		c0,5.1,4.2,9.3,9.3,9.3h4.7v7.6c0,5.1,4.2,9.3,9.3,9.3h13.3l4.9,10.6c0.2,0.5,0.8,0.9,1.4,0.9l0,0c0.6,0,1.1-0.4,1.4-0.9l4.7-10.6
		h13C178.2,133.5,182.3,129.4,182.3,124.2z M114,107.4V91.7c0-3.5,2.8-6.3,6.3-6.3H159c3.5,0,6.3,2.8,6.3,6.3v15.7
		c0,3.5-2.8,6.3-6.3,6.3h-14c-0.6,0-1.1,0.3-1.4,0.9l-3.7,8.4l-3.9-8.5c-0.2-0.5-0.8-0.9-1.4-0.9h-14.3
		C116.9,113.7,114,110.8,114,107.4z M159.1,130.5c-0.6,0-1.1,0.3-1.4,0.9l-3.8,8.5l-3.9-8.5c-0.2-0.5-0.8-0.9-1.4-0.9h-14.3
		c-3.5,0-6.3-2.8-6.3-6.3v-7.6h5.6l4.9,10.6c0.2,0.5,0.8,0.9,1.4,0.9l0,0c0.6,0,1.1-0.4,1.4-0.9l4.7-10.6h13c5.1,0,9.3-4.2,9.3-9.3
		v-5.1h4.7c3.5,0,6.3,2.8,6.3,6.3v15.7c0,3.5-2.8,6.3-6.3,6.3L159.1,130.5L159.1,130.5z"/>
	<path class="st1" d="M155.5,300.5h-29.8c-0.8,0-1.5,0.7-1.5,1.5s0.7,1.5,1.5,1.5h29.8c0.8,0,1.5-0.7,1.5-1.5
		S156.3,300.5,155.5,300.5z"/>
	<path class="st1" d="M155.5,310.4h-29.8c-0.8,0-1.5,0.7-1.5,1.5s0.7,1.5,1.5,1.5h29.8c0.8,0,1.5-0.7,1.5-1.5
		S156.3,310.4,155.5,310.4z"/>
	<path class="st1" d="M155.5,320.4h-29.8c-0.8,0-1.5,0.7-1.5,1.5s0.7,1.5,1.5,1.5h29.8c0.8,0,1.5-0.7,1.5-1.5
		C157,321,156.3,320.4,155.5,320.4z"/>
	<path class="st1" d="M59.2,127H29.4c-0.8,0-1.5,0.7-1.5,1.5s0.7,1.5,1.5,1.5h29.8c0.8,0,1.5-0.7,1.5-1.5S60.1,127,59.2,127z"/>
	<path class="st1" d="M59.2,136.9H29.4c-0.8,0-1.5,0.7-1.5,1.5s0.7,1.5,1.5,1.5h29.8c0.8,0,1.5-0.7,1.5-1.5S60.1,136.9,59.2,136.9z"
		/>
	<path class="st1" d="M59.2,146.8H29.4c-0.8,0-1.5,0.7-1.5,1.5s0.7,1.5,1.5,1.5h29.8c0.8,0,1.5-0.7,1.5-1.5S60.1,146.8,59.2,146.8z"
		/>
	<path class="st1" d="M50.3,290.4H10c-0.8,0-1.5,0.7-1.5,1.5s0.7,1.5,1.5,1.5h40.3c0.8,0,1.5-0.7,1.5-1.5
		C51.8,291.1,51.1,290.4,50.3,290.4z"/>
	<path class="st1" d="M50.3,303.8H10c-0.8,0-1.5,0.7-1.5,1.5s0.7,1.5,1.5,1.5h40.3c0.8,0,1.5-0.7,1.5-1.5
		C51.8,304.5,51.1,303.8,50.3,303.8z"/>
	<path class="st1" d="M50.3,317.2H10c-0.8,0-1.5,0.7-1.5,1.5s0.7,1.5,1.5,1.5h40.3c0.8,0,1.5-0.7,1.5-1.5
		C51.8,317.9,51.1,317.2,50.3,317.2z"/>
	<path class="st1" d="M161.1,251.5c-0.6,0.5-0.7,1.5-0.2,2.1c0.8,0.9,1.2,2.1,1.2,3.4v22.5c0,2.2-1.4,4.2-3.4,4.9
		c-0.5-0.1-0.9,0-1.3,0.3c-0.2,0-0.4,0.1-0.7,0.1h-22.5c-2.9,0-5.3-2.4-5.3-5.3V257c0-2.9,2.4-5.3,5.3-5.3h19.7
		c0.8,0,1.5-0.7,1.5-1.5s-0.7-1.5-1.5-1.5h-19.6c-3.1,0-5.7,1.7-7.2,4.1c-3.4,1.1-5.8,4.3-5.8,7.9v22.4c0,4.6,3.7,8.3,8.3,8.3H152
		c3,0,5.7-1.6,7.1-4.1c3.4-1.1,5.8-4.2,5.8-7.9V257c0-1.9-0.7-3.8-1.9-5.3C162.6,251.1,161.7,251,161.1,251.5z M129.7,288.5
		c-2.9,0-5.3-2.4-5.3-5.3v-22.4c0-1.5,0.6-2.9,1.7-3.8v0.1v22.5c0,4.6,3.7,8.3,8.3,8.3h20.4c-0.8,0.5-1.7,0.7-2.6,0.7h-22.5V288.5z"
		/>
	<path class="st1" d="M153.7,260.2c-0.6-0.6-1.5-0.6-2.1,0l-6,6l-6-6c-0.6-0.6-1.5-0.6-2.1,0s-0.6,1.5,0,2.1l6,5.9l-6,5.9
		c-0.6,0.6-0.6,1.5,0,2.1c0.3,0.3,0.7,0.4,1.1,0.4c0.4,0,0.8-0.1,1.1-0.4l6-6l6,6c0.3,0.3,0.7,0.4,1.1,0.4c0.4,0,0.8-0.1,1.1-0.4
		c0.6-0.6,0.6-1.5,0-2.1l-6-5.9l6-5.9C154.3,261.7,154.3,260.7,153.7,260.2z"/>
	<path class="st1" d="M-20.7,117.8c-0.6,0.5-0.7,1.5-0.2,2.1c0.8,0.9,1.2,2.1,1.2,3.4v22.5c0,2.2-1.4,4.2-3.4,4.9
		c-0.5-0.1-0.9,0-1.3,0.3c-0.2,0-0.4,0.1-0.7,0.1h-22.3c-2.9,0-5.3-2.4-5.3-5.3v-22.5c0-2.9,2.4-5.3,5.3-5.3h19.6
		c0.8,0,1.5-0.7,1.5-1.5s-0.7-1.5-1.5-1.5h-19.6c-3.1,0-5.7,1.7-7.2,4.1c-3.4,1.1-5.8,4.3-5.8,7.9v22.4c0,4.6,3.7,8.3,8.3,8.3h22.4
		c3,0,5.7-1.6,7.1-4.1c3.4-1.1,5.8-4.2,5.8-7.9v-22.5c0-1.9-0.7-3.8-1.9-5.3C-19.1,117.4-20,117.3-20.7,117.8z M-52.1,154.8
		c-2.9,0-5.3-2.4-5.3-5.3V127c0-1.5,0.6-2.9,1.7-3.8v0.1v22.5c0,4.6,3.7,8.3,8.3,8.3H-27c-0.8,0.5-1.7,0.7-2.6,0.7L-52.1,154.8
		L-52.1,154.8z"/>
	<path class="st1" d="M-28,126.5c-0.6-0.6-1.5-0.6-2.1,0l-6,6l-6-6c-0.6-0.6-1.5-0.6-2.1,0c-0.6,0.6-0.6,1.5,0,2.1l6,5.9l-6,5.9
		c-0.6,0.6-0.6,1.5,0,2.1c0.3,0.3,0.7,0.4,1.1,0.4s0.8-0.1,1.1-0.4l6-6l6,6c0.3,0.3,0.7,0.4,1.1,0.4c0.4,0,0.8-0.1,1.1-0.4
		c0.6-0.6,0.6-1.5,0-2.1l-6-5.9l6-5.9C-27.4,128-27.4,127.1-28,126.5z"/>
	<path class="st1" d="M-4.7,290.4L-4.7,290.4c0-0.2,0-0.4,0-0.5l0,0c0-0.2-0.1-0.3-0.2-0.5l-3-5.1c0,0,0,0,0-0.1c0,0,0-0.1-0.1-0.1
		l-0.1-0.1c0,0,0,0-0.1-0.1l-0.1-0.1l0,0l0,0c0,0-0.1,0-0.1-0.1c-0.1,0-0.1-0.1-0.2-0.1c0,0,0,0-0.1,0c0,0,0,0-0.1,0l0,0
		c-0.1,0-0.1,0-0.2-0.1l0,0h-0.1c0,0,0,0-0.1,0l0,0l-10.4-0.7l10.1-12.7l0,0c0.1-0.1,0.1-0.2,0.2-0.3v-0.1c0-0.1,0.1-0.2,0.1-0.4
		l0,0c0-0.1,0-0.3,0-0.4v-0.1c0-0.1-0.1-0.3-0.2-0.4l-3-5.1l-0.1-0.1c0,0,0-0.1-0.1-0.1c0,0,0,0-0.1-0.1c0,0,0,0-0.1-0.1l-0.1-0.1
		l0,0l0,0c0,0-0.1,0-0.1-0.1c-0.1,0-0.1-0.1-0.2-0.1c0,0,0,0-0.1,0c0,0,0,0-0.1,0s-0.2,0-0.3-0.1l0,0l0,0l0,0l0,0l-27.4-2.1
		c-0.6,0-1.2,0.3-1.5,0.8l-16.7,34.7v0.1c0,0.1,0,0.1-0.1,0.2c0,0.1,0,0.2,0,0.2v0.1c0,0.1,0,0.2,0,0.3v0.1c0,0.1,0.1,0.2,0.1,0.4
		l0,0l0,0l3,5.1c0.3,0.4,0.7,0.7,1.2,0.7l6.1,0.4l-12.3,21l0,0l0,0l0,0c0,0.1-0.1,0.2-0.1,0.3l0,0l0,0l0,0v0.1v0.1
		c0,0.1,0,0.1,0,0.2c0,0,0,0,0,0.1c0,0,0,0,0,0.1s0,0.1,0,0.2l0,0c0,0,0,0,0,0.1v0.1c0,0,0,0,0,0.1l0,0l0,0c0,0.1,0.1,0.1,0.1,0.2
		c0,0,0,0,0,0.1l0,0l0,0l1.5,2.5l1.5,2.5l0,0c0.1,0.1,0.1,0.2,0.2,0.3l0.1,0.1c0.1,0.1,0.1,0.1,0.2,0.1c0,0,0.1,0,0.1,0.1
		c0.1,0,0.1,0.1,0.2,0.1h0.1c0,0,0,0,0.1,0c0.1,0,0.2,0,0.3,0l0,0l0,0c0.1,0,0.3,0,0.4-0.1c0,0,0.1,0,0.1-0.1c0.1,0,0.1,0,0.2-0.1
		l0.1-0.1l0,0l50.7-40.3l0,0c0.1-0.1,0.2-0.2,0.3-0.4c0,0,0,0,0-0.1C-4.8,290.7-4.8,290.6-4.7,290.4z M-23.1,282.6l-3-0.2l12.4-15.6
		l1.4,2.3L-23.1,282.6z M-47.2,300.6l-6.9-0.4l-1.2-2h0.1l0,0c0.1,0,0.3,0.1,0.4,0.1l8.6,0.5l-0.3,0.5L-47.2,300.6z M-42.3,298.3
		C-42.3,298.3-42.3,298.2-42.3,298.3c0.2-0.3,0.2-0.6,0.2-0.8c0-0.2-0.1-0.5-0.2-0.7c-0.2-0.5-0.7-0.7-1.2-0.8l-11.6-0.8h-0.5
		l15.3-31.7l23.9,1.9l-13.8,17.3c-0.3,0.4-0.4,1-0.2,1.5s0.7,0.9,1.3,0.9l6.7,0.5l0,0l9.4,0.7l-33.8,26.8l-7.6,6L-42.3,298.3z
		 M-56.5,328.1l-1.4-2.4l0,0l40.6-32.2l7.7-6.2l1.5,2.5L-56.5,328.1z"/>
</g>
</svg>
